<svg xmlns="http://www.w3.org/2000/svg">
    <defs>
        <symbol id="home-icon"   width="8" height="12" viewBox="0 0 8 12" fill="none" xmlns="http://www.w3.org/2000/svg">
            <path fill-rule="evenodd" clip-rule="evenodd" d="M0 1C0 0.447715 0.447715 0 1 0H7C7.55228 0 8 0.447715 8 1V11C8 11.5523 7.55228 12 7 12C6.44772 12 6 11.5523 6 11V2H2V11C2 11.5523 1.55228 12 1 12C0.447715 12 0 11.5523 0 11V1Z" fill="currentColor"/>
        </symbol>
   
        <symbol id="tooltip-icon"  width="22" height="22" viewBox="0 0 22 22" fill="none" xmlns="http://www.w3.org/2000/svg">
            <path fill-rule="evenodd" clip-rule="evenodd" d="M11 2C6.02944 2 2 6.02944 2 11C2 15.9706 6.02944 20 11 20C15.9706 20 20 15.9706 20 11C20 6.02944 15.9706 2 11 2ZM0 11C0 4.92487 4.92487 0 11 0C17.0751 0 22 4.92487 22 11C22 17.0751 17.0751 22 11 22C4.92487 22 0 17.0751 0 11Z" fill="currentColor"/>
            <path fill-rule="evenodd" clip-rule="evenodd" d="M11.2582 7.02431C10.7927 6.94446 10.314 7.03194 9.90675 7.27126C9.49955 7.51057 9.19019 7.88628 9.03345 8.33184C8.85018 8.85282 8.27926 9.1266 7.75827 8.94333C7.23728 8.76005 6.96351 8.18914 7.14678 7.66815C7.46025 6.77704 8.07898 6.02562 8.89339 5.54699C9.70779 5.06836 10.6653 4.8934 11.5964 5.0531C12.5274 5.2128 13.3719 5.69685 13.9802 6.41952C14.5884 7.14204 14.9214 8.05647 14.9201 9.0009C14.9197 10.5313 13.7851 11.5419 12.9748 12.082C12.5392 12.3725 12.1107 12.586 11.795 12.7263C11.6358 12.7971 11.5016 12.8508 11.405 12.8876C11.3566 12.906 11.3174 12.9203 11.2888 12.9305L11.2541 12.9427L11.243 12.9464L11.2391 12.9477L11.2376 12.9483C11.2373 12.9484 11.2363 12.9487 10.9201 12L11.2363 12.9487C10.7124 13.1233 10.1461 12.8402 9.97143 12.3162C9.7969 11.7926 10.0796 11.2267 10.6028 11.0517L10.6016 11.0521C10.6017 11.0521 10.6018 11.052 10.6028 11.0517L10.6188 11.0461C10.6342 11.0406 10.6594 11.0314 10.693 11.0186C10.7605 10.9929 10.8607 10.9529 10.9827 10.8987C11.2296 10.789 11.551 10.6275 11.8654 10.4179C12.555 9.95821 12.9201 9.46913 12.9201 8.99999L12.9201 8.9985C12.9208 8.52618 12.7543 8.06886 12.4502 7.70752C12.146 7.34618 11.7238 7.10416 11.2582 7.02431Z" fill="currentColor"/>
            <path fill-rule="evenodd" clip-rule="evenodd" d="M11 14C11.5523 14 12 14.4477 12 15V15.5C12 16.0523 11.5523 16.5 11 16.5C10.4477 16.5 10 16.0523 10 15.5V15C10 14.4477 10.4477 14 11 14Z" fill="currentColor"/>
        </symbol>
  
        <symbol id="success-icon" width="22" height="23" viewBox="0 0 22 23" fill="none" xmlns="http://www.w3.org/2000/svg">
            <path fill-rule="evenodd" clip-rule="evenodd" d="M14.663 3.77342C12.8902 2.98352 10.9096 2.78783 9.01657 3.21555C7.12351 3.64326 5.41942 4.67145 4.15845 6.14678C2.89749 7.62211 2.14721 9.46552 2.01951 11.4021C1.89181 13.3387 2.39354 15.2646 3.44987 16.8928C4.50619 18.5209 6.06051 19.764 7.88102 20.4365C9.70153 21.1091 11.6907 21.1752 13.5518 20.6249C15.413 20.0746 17.0464 18.9375 18.2084 17.3831C19.3705 15.8286 19.9989 13.9402 20 11.9994V11.08C20 10.5277 20.4477 10.08 21 10.08C21.5523 10.08 22 10.5277 22 11.08V12C21.9986 14.3721 21.2306 16.6807 19.8103 18.5806C18.39 20.4804 16.3936 21.8703 14.1189 22.5428C11.8442 23.2154 9.41299 23.1346 7.18792 22.3126C4.96285 21.4906 3.06312 19.9713 1.77206 17.9813C0.480993 15.9914 -0.13223 13.6374 0.0238445 11.2705C0.179919 8.90358 1.09693 6.65052 2.63811 4.84734C4.17929 3.04416 6.26206 1.78748 8.57581 1.26472C10.8896 0.74196 13.3103 0.981129 15.477 1.94656C15.9815 2.17134 16.2082 2.76252 15.9834 3.26699C15.7587 3.77146 15.1675 3.9982 14.663 3.77342Z" fill="currentColor"/>
            <path fill-rule="evenodd" clip-rule="evenodd" d="M21.7068 3.29254C22.0975 3.68287 22.0978 4.31603 21.7075 4.70675L11.7075 14.7168C11.52 14.9044 11.2656 15.0099 11.0002 15.01C10.7349 15.0101 10.4805 14.9047 10.2929 14.7171L7.29289 11.7171C6.90237 11.3266 6.90237 10.6934 7.29289 10.3029C7.68342 9.91237 8.31658 9.91237 8.70711 10.3029L10.9996 12.5954L20.2925 3.29325C20.6829 2.90253 21.316 2.90221 21.7068 3.29254Z" fill="currentColor"/>
        </symbol>
    
        <symbol id="error-icon" width="24" height="21" viewBox="0 0 24 21" fill="none" xmlns="http://www.w3.org/2000/svg">
            <path fill-rule="evenodd" clip-rule="evenodd" d="M10.5282 1.28309C10.9775 1.03014 11.4844 0.897247 12 0.897247C12.5156 0.897247 13.0225 1.03014 13.4718 1.28309C13.9211 1.53604 14.2976 1.90052 14.565 2.34136L14.5679 2.34611L23.0379 16.4861L23.046 16.4999C23.308 16.9536 23.4466 17.4679 23.448 17.9917C23.4495 18.5155 23.3138 19.0306 23.0544 19.4857C22.795 19.9408 22.4209 20.3201 21.9694 20.5857C21.518 20.8514 21.0048 20.9942 20.481 20.9999L20.47 21.0001L3.51903 21C2.99522 20.9942 2.48206 20.8514 2.03059 20.5857C1.57912 20.3201 1.20507 19.9408 0.94567 19.4857C0.686267 19.0306 0.550547 18.5155 0.552014 17.9917C0.55348 17.4679 0.692083 16.9536 0.95403 16.4999L0.962153 16.4861L9.43215 2.34612L10.29 2.85998L9.43502 2.34136C9.70243 1.90052 10.0789 1.53604 10.5282 1.28309ZM11.1462 3.37663L2.68271 17.5058C2.59753 17.6556 2.55249 17.8249 2.55201 17.9973C2.55152 18.1719 2.59676 18.3436 2.68322 18.4953C2.76969 18.647 2.89438 18.7734 3.04487 18.862C3.19404 18.9498 3.36342 18.9973 3.53642 19H20.4636C20.6366 18.9973 20.806 18.9498 20.9552 18.862C21.1057 18.7734 21.2303 18.647 21.3168 18.4953C21.4033 18.3436 21.4485 18.1719 21.448 17.9973C21.4476 17.8249 21.4025 17.6557 21.3174 17.5059L12.855 3.37862C12.8546 3.37796 12.8542 3.37729 12.8538 3.37663C12.7648 3.23058 12.6397 3.1098 12.4906 3.02586C12.3409 2.94154 12.1719 2.89725 12 2.89725C11.8282 2.89725 11.6592 2.94154 11.5094 3.02586C11.3603 3.1098 11.2353 3.23058 11.1462 3.37663Z" fill="currentColor"/>
            <path fill-rule="evenodd" clip-rule="evenodd" d="M12 7C12.5523 7 13 7.44772 13 8V12C13 12.5523 12.5523 13 12 13C11.4477 13 11 12.5523 11 12V8C11 7.44772 11.4477 7 12 7Z" fill="currentColor"/>
        </symbol>
    
        <symbol id="star-icon" width="22" height="22" viewBox="0 0 22 22" fill="none" xmlns="http://www.w3.org/2000/svg">
            <path fill-rule="evenodd" clip-rule="evenodd" d="M11 0C11.3806 0 11.7283 0.216072 11.8967 0.557376L14.7543 6.34647L21.1447 7.28051C21.5212 7.33555 21.8339 7.59956 21.9513 7.96157C22.0687 8.32358 21.9704 8.72083 21.6978 8.98636L17.0746 13.4894L18.1656 19.851C18.23 20.2261 18.0757 20.6053 17.7678 20.8291C17.4598 21.0528 17.0515 21.0823 16.7146 20.9051L11 17.8998L5.28548 20.9051C4.94856 21.0823 4.54027 21.0528 4.2323 20.8291C3.92432 20.6053 3.77007 20.2261 3.83442 19.851L4.92551 13.4894L0.302296 8.98636C0.0296782 8.72083 -0.0685946 8.32358 0.0487831 7.96157C0.166161 7.59956 0.478841 7.33555 0.855401 7.28051L7.24577 6.34647L10.1033 0.557376C10.2718 0.216072 10.6194 0 11 0ZM11 3.25925L8.80674 7.70262C8.6612 7.99747 8.38001 8.20193 8.05466 8.24949L3.14844 8.9666L6.69776 12.4236C6.93364 12.6534 7.0413 12.9845 6.98564 13.309L6.14821 18.1917L10.5346 15.8849C10.826 15.7317 11.1741 15.7317 11.4655 15.8849L15.8518 18.1917L15.0144 13.309C14.9588 12.9845 15.0664 12.6534 15.3023 12.4236L18.8516 8.9666L13.9454 8.24949C13.62 8.20193 13.3389 7.99747 13.1933 7.70262L11 3.25925Z" fill="currentColor"/>
        </symbol>
    
        <symbol id="cart-icon" width="24" height="23" viewBox="0 0 24 23" fill="none" xmlns="http://www.w3.org/2000/svg">
            <path fill-rule="evenodd" clip-rule="evenodd" d="M7 21C7 19.8954 7.89543 19 9 19C10.1046 19 11 19.8954 11 21C11 22.1046 10.1046 23 9 23C7.89543 23 7 22.1046 7 21Z" fill="currentColor"/>
            <path fill-rule="evenodd" clip-rule="evenodd" d="M18 21C18 19.8954 18.8954 19 20 19C21.1046 19 22 19.8954 22 21C22 22.1046 21.1046 23 20 23C18.8954 23 18 22.1046 18 21Z" fill="currentColor"/>
            <path fill-rule="evenodd" clip-rule="evenodd" d="M0 1C0 0.447715 0.447715 0 1 0H5C5.47663 0 5.88701 0.336385 5.98055 0.803743L6.82043 5H23C23.298 5 23.5805 5.13293 23.7705 5.36256C23.9605 5.59218 24.0381 5.89458 23.9823 6.18733L22.3809 14.5848C22.2437 15.2754 21.868 15.8958 21.3195 16.3373C20.7738 16.7766 20.0916 17.011 19.3914 17H9.68864C8.98837 17.011 8.3062 16.7766 7.76048 16.3373C7.21225 15.8959 6.83664 15.2759 6.69933 14.5857C6.69927 14.5854 6.69939 14.5859 6.69933 14.5857L5.02879 6.2392C5.02201 6.21159 5.01638 6.18353 5.01195 6.15508L4.18032 2H1C0.447715 2 0 1.55228 0 1ZM7.22073 7L8.66084 14.1952C8.70656 14.4254 8.83179 14.6322 9.01461 14.7793C9.19743 14.9265 9.42619 15.0047 9.66084 15.0002L9.68 15H19.4L19.4192 15.0002C19.6538 15.0047 19.8826 14.9265 20.0654 14.7793C20.2474 14.6328 20.3723 14.4273 20.4185 14.1984L21.7913 7H7.22073Z" fill="currentColor"/>
        </symbol>
    
        <symbol id="pin-icon" width="20" height="24" viewBox="0 0 20 24" fill="none" xmlns="http://www.w3.org/2000/svg">
            <path fill-rule="evenodd" clip-rule="evenodd" d="M10 2C7.87827 2 5.84344 2.84285 4.34315 4.34315C2.84285 5.84344 2 7.87827 2 10C2 13.0981 4.01574 16.1042 6.22595 18.4373C7.31061 19.5822 8.39867 20.5195 9.21668 21.1708C9.52111 21.4133 9.78702 21.6152 10 21.7726C10.213 21.6152 10.4789 21.4133 10.7833 21.1708C11.6013 20.5195 12.6894 19.5822 13.774 18.4373C15.9843 16.1042 18 13.0981 18 10C18 7.87827 17.1571 5.84344 15.6569 4.34315C14.1566 2.84285 12.1217 2 10 2ZM10 23C9.4453 23.8321 9.44505 23.8319 9.44476 23.8317L9.4419 23.8298L9.43524 23.8253L9.41232 23.8098C9.39285 23.7966 9.36508 23.7776 9.32956 23.753C9.25853 23.7038 9.15646 23.6321 9.02779 23.5392C8.77055 23.3534 8.40636 23.0822 7.97082 22.7354C7.10133 22.043 5.93939 21.0428 4.77405 19.8127C2.48426 17.3958 0 13.9019 0 10C5.96046e-08 7.34784 1.05357 4.8043 2.92893 2.92893C4.8043 1.05357 7.34784 0 10 0C12.6522 0 15.1957 1.05357 17.0711 2.92893C18.9464 4.8043 20 7.34784 20 10C20 13.9019 17.5157 17.3958 15.226 19.8127C14.0606 21.0428 12.8987 22.043 12.0292 22.7354C11.5936 23.0822 11.2295 23.3534 10.9722 23.5392C10.8435 23.6321 10.7415 23.7038 10.6704 23.753C10.6349 23.7776 10.6072 23.7966 10.5877 23.8098L10.5648 23.8253L10.5581 23.8298L10.556 23.8312C10.5557 23.8314 10.5547 23.8321 10 23ZM10 23L10.5547 23.8321C10.2188 24.056 9.78066 24.0556 9.44476 23.8317L10 23Z" fill="currentColor"/>
            <path fill-rule="evenodd" clip-rule="evenodd" d="M10 8C8.89543 8 8 8.89543 8 10C8 11.1046 8.89543 12 10 12C11.1046 12 12 11.1046 12 10C12 8.89543 11.1046 8 10 8ZM6 10C6 7.79086 7.79086 6 10 6C12.2091 6 14 7.79086 14 10C14 12.2091 12.2091 14 10 14C7.79086 14 6 12.2091 6 10Z" fill="currentColor"/>
        </symbol>
    
        <symbol id="calendar-icon" width="20" height="22" viewBox="0 0 20 22" fill="none" xmlns="http://www.w3.org/2000/svg">
            <path fill-rule="evenodd" clip-rule="evenodd" d="M3 4C2.44772 4 2 4.44772 2 5V19C2 19.5523 2.44772 20 3 20H17C17.5523 20 18 19.5523 18 19V5C18 4.44772 17.5523 4 17 4H3ZM0 5C0 3.34315 1.34315 2 3 2H17C18.6569 2 20 3.34315 20 5V19C20 20.6569 18.6569 22 17 22H3C1.34315 22 0 20.6569 0 19V5Z" fill="currentColor"/>
            <path fill-rule="evenodd" clip-rule="evenodd" d="M14 0C14.5523 0 15 0.447715 15 1V5C15 5.55228 14.5523 6 14 6C13.4477 6 13 5.55228 13 5V1C13 0.447715 13.4477 0 14 0Z" fill="currentColor"/>
            <path fill-rule="evenodd" clip-rule="evenodd" d="M6 0C6.55228 0 7 0.447715 7 1V5C7 5.55228 6.55228 6 6 6C5.44772 6 5 5.55228 5 5V1C5 0.447715 5.44772 0 6 0Z" fill="currentColor"/>
            <path fill-rule="evenodd" clip-rule="evenodd" d="M0 9C0 8.44772 0.447715 8 1 8H19C19.5523 8 20 8.44772 20 9C20 9.55228 19.5523 10 19 10H1C0.447715 10 0 9.55228 0 9Z" fill="currentColor"/>
        </symbol>
    







        <symbol id="edit-icon" width="23" height="23" viewBox="0 0 23 23" fill="none" xmlns="http://www.w3.org/2000/svg">
            <path fill-rule="evenodd" clip-rule="evenodd" d="M0.87868 3.87868C1.44129 3.31607 2.20435 3 3 3H10C10.5523 3 11 3.44772 11 4C11 4.55228 10.5523 5 10 5H3C2.73478 5 2.48043 5.10536 2.29289 5.29289C2.10536 5.48043 2 5.73478 2 6V20C2 20.2652 2.10536 20.5196 2.29289 20.7071C2.48043 20.8946 2.73478 21 3 21H17C17.2652 21 17.5196 20.8946 17.7071 20.7071C17.8946 20.5196 18 20.2652 18 20V13C18 12.4477 18.4477 12 19 12C19.5523 12 20 12.4477 20 13V20C20 20.7957 19.6839 21.5587 19.1213 22.1213C18.5587 22.6839 17.7957 23 17 23H3C2.20435 23 1.44129 22.6839 0.87868 22.1213C0.31607 21.5587 0 20.7957 0 20V6C0 5.20435 0.31607 4.44129 0.87868 3.87868Z" fill="currentColor"/>
            <path fill-rule="evenodd" clip-rule="evenodd" d="M19 2.87869C18.7026 2.87869 18.4174 2.99683 18.2071 3.20712L8.90299 12.5113L8.37439 14.6256L10.4888 14.097L19.7929 4.79291C20.0032 4.58262 20.1213 4.29741 20.1213 4.00001C20.1213 3.70262 20.0032 3.41741 19.7929 3.20712C19.5826 2.99683 19.2974 2.87869 19 2.87869ZM16.7929 1.79291C17.3783 1.20755 18.1722 0.878693 19 0.878693C19.8278 0.878693 20.6218 1.20755 21.2071 1.79291C21.7925 2.37827 22.1213 3.17219 22.1213 4.00001C22.1213 4.82784 21.7925 5.62176 21.2071 6.20712L11.7071 15.7071C11.579 15.8353 11.4184 15.9262 11.2426 15.9702L7.24256 16.9702C6.90178 17.0553 6.54129 16.9555 6.29291 16.7071C6.04453 16.4587 5.94468 16.0983 6.02988 15.7575L7.02988 11.7575C7.07384 11.5816 7.16476 11.4211 7.29291 11.2929L16.7929 1.79291Z" fill="currentColor"/>
        </symbol>
    
        <symbol id="image-icon" width="20" height="20" viewBox="0 0 20 20" fill="none" xmlns="http://www.w3.org/2000/svg">
            <path fill-rule="evenodd" clip-rule="evenodd" d="M3 2C2.44772 2 2 2.44772 2 3V17C2 17.5523 2.44772 18 3 18H17C17.5523 18 18 17.5523 18 17V3C18 2.44772 17.5523 2 17 2H3ZM0 3C0 1.34315 1.34315 0 3 0H17C18.6569 0 20 1.34315 20 3V17C20 18.6569 18.6569 20 17 20H3C1.34315 20 0 18.6569 0 17V3Z" fill="currentColor"/>
            <path fill-rule="evenodd" clip-rule="evenodd" d="M6.5 6C6.22386 6 6 6.22386 6 6.5C6 6.77614 6.22386 7 6.5 7C6.77614 7 7 6.77614 7 6.5C7 6.22386 6.77614 6 6.5 6ZM4 6.5C4 5.11929 5.11929 4 6.5 4C7.88071 4 9 5.11929 9 6.5C9 7.88071 7.88071 9 6.5 9C5.11929 9 4 7.88071 4 6.5Z" fill="currentColor"/>
            <path fill-rule="evenodd" clip-rule="evenodd" d="M13.2929 7.29289C13.6834 6.90237 14.3166 6.90237 14.7071 7.29289L19.7071 12.2929C20.0976 12.6834 20.0976 13.3166 19.7071 13.7071C19.3166 14.0976 18.6834 14.0976 18.2929 13.7071L14 9.41421L3.70711 19.7071C3.31658 20.0976 2.68342 20.0976 2.29289 19.7071C1.90237 19.3166 1.90237 18.6834 2.29289 18.2929L13.2929 7.29289Z" fill="currentColor"/>
        </symbol>
   
        <symbol id="bell-icon" width="20" height="22" viewBox="0 0 20 22" fill="none" xmlns="http://www.w3.org/2000/svg">
            <path fill-rule="evenodd" clip-rule="evenodd" d="M5.05033 2.05025C6.36309 0.737498 8.14356 0 10.0001 0C11.8566 0 13.6371 0.737498 14.9498 2.05025C16.2626 3.36301 17.0001 5.14349 17.0001 7C17.0001 10.3527 17.7171 12.4346 18.378 13.6461C18.7098 14.2544 19.0329 14.6535 19.2573 14.8904C19.3698 15.0091 19.4581 15.0878 19.5114 15.1322C19.538 15.1544 19.5558 15.168 19.5635 15.1737C19.5647 15.1746 19.5657 15.1753 19.5664 15.1758C19.9249 15.4221 20.0835 15.8725 19.9572 16.2898C19.8295 16.7115 19.4407 17 19.0001 17H1.00008C0.559411 17 0.170684 16.7115 0.0429858 16.2898C-0.0833568 15.8725 0.0752824 15.4221 0.433767 15.1758C0.434469 15.1753 0.435424 15.1746 0.436625 15.1737C0.444325 15.168 0.462178 15.1544 0.4888 15.1322C0.542016 15.0878 0.6304 15.0091 0.742875 14.8904C0.967304 14.6535 1.29039 14.2544 1.62218 13.6461C2.28301 12.4346 3.00008 10.3527 3.00008 7C3.00008 5.14348 3.73758 3.36301 5.05033 2.05025ZM0.443875 15.169C0.443954 15.1689 0.444033 15.1688 0.444112 15.1688C0.444107 15.1688 0.444103 15.1688 0.444099 15.1688L0.443875 15.169ZM3.1494 15H16.8508C16.7747 14.8753 16.6983 14.7434 16.6222 14.6039C15.783 13.0654 15.0001 10.6473 15.0001 7C15.0001 5.67392 14.4733 4.40215 13.5356 3.46447C12.5979 2.52678 11.3262 2 10.0001 2C8.674 2 7.40223 2.52678 6.46454 3.46447C5.52686 4.40215 5.00008 5.67392 5.00008 7C5.00008 10.6473 4.21715 13.0654 3.37797 14.6039C3.30188 14.7434 3.22549 14.8753 3.1494 15Z" fill="currentColor"/>
            <path fill-rule="evenodd" clip-rule="evenodd" d="M7.76817 19.135C8.24589 18.8579 8.85782 19.0205 9.13494 19.4982C9.22285 19.6498 9.34902 19.7756 9.50083 19.863C9.65263 19.9504 9.82475 19.9965 9.99994 19.9965C10.1751 19.9965 10.3472 19.9504 10.4991 19.863C10.6509 19.7756 10.777 19.6498 10.8649 19.4982C11.1421 19.0205 11.754 18.8579 12.2317 19.135C12.7094 19.4121 12.8721 20.0241 12.5949 20.5018C12.3312 20.9564 11.9527 21.3338 11.4973 21.5961C11.0419 21.8584 10.5255 21.9965 9.99994 21.9965C9.47437 21.9965 8.95803 21.8584 8.5026 21.5961C8.04718 21.3338 7.66866 20.9564 7.40494 20.5018C7.12782 20.0241 7.29044 19.4121 7.76817 19.135Z" fill="currentColor"/>
        </symbol>
  
        <symbol id="upload-icon" width="24" height="20" viewBox="0 0 24 20" fill="none" xmlns="http://www.w3.org/2000/svg">
            <path fill-rule="evenodd" clip-rule="evenodd" d="M12 9C12.5523 9 13 9.44772 13 10V19C13 19.5523 12.5523 20 12 20C11.4477 20 11 19.5523 11 19V10C11 9.44772 11.4477 9 12 9Z" fill="currentColor"/>
            <path fill-rule="evenodd" clip-rule="evenodd" d="M8.66326 0.00857498C10.0227 -0.0415141 11.3759 0.217242 12.621 0.765391C13.8661 1.31354 14.9707 2.13682 15.8518 3.17332C16.5633 4.01025 17.1141 4.96861 17.479 6.00001H18C19.333 6.00089 20.6284 6.44567 21.6806 7.26415C22.7328 8.08263 23.4825 9.22819 23.8113 10.52C24.1401 11.8119 24.0293 13.1765 23.4965 14.3984C22.9636 15.6203 22.039 16.6299 20.8686 17.268C20.3837 17.5324 19.7763 17.3536 19.512 16.8687C19.2476 16.3838 19.4264 15.7764 19.9113 15.512C20.6916 15.0866 21.308 14.4135 21.6632 13.5989C22.0184 12.7843 22.0923 11.8746 21.8731 11.0134C21.6539 10.1521 21.1541 9.38842 20.4526 8.84277C19.7512 8.29712 18.888 8.0006 17.9993 8.00001H16.74C16.2841 8.00001 15.8859 7.69169 15.7718 7.25032C15.5069 6.22591 15.0133 5.27487 14.328 4.46869C13.6427 3.66252 12.7835 3.02219 11.8151 2.59585C10.8467 2.16952 9.79428 1.96826 8.7369 2.00722C7.67952 2.04618 6.64473 2.32433 5.71032 2.82078C4.77592 3.31722 3.96622 4.01904 3.34209 4.87346C2.71796 5.72787 2.29565 6.71267 2.1069 7.75379C1.91815 8.79492 1.96789 9.86528 2.25236 10.8844C2.53683 11.9036 3.04863 12.845 3.74929 13.6378C4.11501 14.0517 4.076 14.6836 3.66215 15.0493C3.24831 15.4151 2.61635 15.3761 2.25063 14.9622C1.34977 13.9428 0.691738 12.7324 0.325992 11.4221C-0.039755 10.1118 -0.103695 8.73562 0.138979 7.39703C0.381653 6.05844 0.924626 4.79228 1.72708 3.69374C2.52953 2.5952 3.57057 1.69287 4.77195 1.05458C5.97333 0.416295 7.30377 0.058664 8.66326 0.00857498Z" fill="currentColor"/>
            <path fill-rule="evenodd" clip-rule="evenodd" d="M11.2929 9.29289C11.6834 8.90237 12.3166 8.90237 12.7071 9.29289L16.7071 13.2929C17.0976 13.6834 17.0976 14.3166 16.7071 14.7071C16.3166 15.0976 15.6834 15.0976 15.2929 14.7071L12 11.4142L8.70711 14.7071C8.31658 15.0976 7.68342 15.0976 7.29289 14.7071C6.90237 14.3166 6.90237 13.6834 7.29289 13.2929L11.2929 9.29289Z" fill="currentColor"/>
        </symbol>
 
        <symbol id="download-icon" width="20" height="20" viewBox="0 0 20 20" fill="none" xmlns="http://www.w3.org/2000/svg">
            <path fill-rule="evenodd" clip-rule="evenodd" d="M1 12C1.55228 12 2 12.4477 2 13V17C2 17.2652 2.10536 17.5196 2.29289 17.7071C2.48043 17.8946 2.73478 18 3 18H17C17.2652 18 17.5196 17.8946 17.7071 17.7071C17.8946 17.5196 18 17.2652 18 17V13C18 12.4477 18.4477 12 19 12C19.5523 12 20 12.4477 20 13V17C20 17.7957 19.6839 18.5587 19.1213 19.1213C18.5587 19.6839 17.7957 20 17 20H3C2.20435 20 1.44129 19.6839 0.87868 19.1213C0.31607 18.5587 0 17.7956 0 17V13C0 12.4477 0.447715 12 1 12Z" fill="currentColor"/>
            <path fill-rule="evenodd" clip-rule="evenodd" d="M4.29289 7.29289C4.68342 6.90237 5.31658 6.90237 5.70711 7.29289L10 11.5858L14.2929 7.29289C14.6834 6.90237 15.3166 6.90237 15.7071 7.29289C16.0976 7.68342 16.0976 8.31658 15.7071 8.70711L10.7071 13.7071C10.3166 14.0976 9.68342 14.0976 9.29289 13.7071L4.29289 8.70711C3.90237 8.31658 3.90237 7.68342 4.29289 7.29289Z" fill="currentColor"/>
            <path fill-rule="evenodd" clip-rule="evenodd" d="M10 0C10.5523 0 11 0.447715 11 1V13C11 13.5523 10.5523 14 10 14C9.44772 14 9 13.5523 9 13V1C9 0.447715 9.44772 0 10 0Z" fill="currentColor"/>
        </symbol>
  
        <symbol id="chart-icon" width="14" height="18" viewBox="0 0 14 18" fill="none" xmlns="http://www.w3.org/2000/svg">
            <path fill-rule="evenodd" clip-rule="evenodd" d="M13 6C13.5523 6 14 6.44772 14 7V17C14 17.5523 13.5523 18 13 18C12.4477 18 12 17.5523 12 17V7C12 6.44772 12.4477 6 13 6Z" fill="currentColor"/>
            <path fill-rule="evenodd" clip-rule="evenodd" d="M7 0C7.55228 0 8 0.447715 8 1V17C8 17.5523 7.55228 18 7 18C6.44772 18 6 17.5523 6 17V1C6 0.447715 6.44772 0 7 0Z" fill="currentColor"/>
            <path fill-rule="evenodd" clip-rule="evenodd" d="M1 10C1.55228 10 2 10.4477 2 11V17C2 17.5523 1.55228 18 1 18C0.447715 18 0 17.5523 0 17V11C0 10.4477 0.447715 10 1 10Z" fill="currentColor"/>
        </symbol>
 
        <symbol id="inbox-icon" width="22" height="18" viewBox="0 0 22 18" fill="none" xmlns="http://www.w3.org/2000/svg">
            <path fill-rule="evenodd" clip-rule="evenodd" d="M0 9C0 8.44772 0.447715 8 1 8H7C7.33435 8 7.64658 8.1671 7.83205 8.4453L9.53518 11H12.4648L14.1679 8.4453C14.3534 8.1671 14.6656 8 15 8H21C21.5523 8 22 8.44772 22 9C22 9.55228 21.5523 10 21 10H15.5352L13.8321 12.5547C13.6466 12.8329 13.3344 13 13 13H9C8.66565 13 8.35342 12.8329 8.16795 12.5547L6.46482 10H1C0.447715 10 0 9.55228 0 9Z" fill="currentColor"/>
            <path fill-rule="evenodd" clip-rule="evenodd" d="M6.24 0L15.76 1.19209e-07C16.3181 0.000296414 16.8656 0.156283 17.34 0.45042C17.8139 0.744298 18.1965 1.16444 18.4449 1.66368C18.4451 1.66412 18.4453 1.66456 18.4455 1.665L21.8942 8.55227C21.9638 8.69126 22 8.84456 22 9V15C22 15.7957 21.6839 16.5587 21.1213 17.1213C20.5587 17.6839 19.7957 18 19 18H3C2.20435 18 1.44129 17.6839 0.87868 17.1213C0.31607 16.5587 0 15.7956 0 15V9C0 8.84456 0.0362364 8.69126 0.105833 8.55227L3.55447 1.665C3.55471 1.66451 3.55495 1.66403 3.5552 1.66354C3.80358 1.16436 4.18617 0.74427 4.66004 0.45042C5.13437 0.156283 5.68187 0.000296175 6.24 0ZM4.45 2.11L5.34417 2.55773L2 9.23637V15C2 15.2652 2.10536 15.5196 2.29289 15.7071C2.48043 15.8946 2.73478 16 3 16H19C19.2652 16 19.5196 15.8946 19.7071 15.7071C19.8946 15.5196 20 15.2652 20 15V9.23637L16.6558 2.55773L16.6545 2.555C16.5717 2.38839 16.4441 2.24818 16.2859 2.15014C16.1279 2.05213 15.9456 2.00013 15.7597 2H6.24034C6.05436 2.00013 5.87211 2.05213 5.71405 2.15014C5.55594 2.24819 5.42832 2.38839 5.34553 2.555L4.45 2.11Z" fill="currentColor"/>
        </symbol>

        <symbol id="filter-icon" width="22" height="20" viewBox="0 0 22 20" fill="none" xmlns="http://www.w3.org/2000/svg">
            <path fill-rule="evenodd" clip-rule="evenodd" d="M0.0928956 0.579123C0.256754 0.225959 0.610687 0 1.00001 0H21C21.3893 0 21.7433 0.225959 21.9071 0.579123C22.071 0.932287 22.015 1.34845 21.7636 1.64573L14 10.8261V19C14 19.3466 13.8206 19.6684 13.5257 19.8507C13.2309 20.0329 12.8628 20.0494 12.5528 19.8944L8.5528 17.8944C8.21402 17.725 8.00001 17.3788 8.00001 17V10.8261L0.236443 1.64573C-0.0149541 1.34845 -0.0709627 0.932287 0.0928956 0.579123ZM3.15532 2L9.76358 9.81427C9.91625 9.9948 10 10.2236 10 10.46V16.382L12 17.382V10.46C12 10.2236 12.0838 9.9948 12.2364 9.81427L18.8447 2H3.15532Z" fill="currentColor"/>
        </symbol>
 






        <symbol id="map-icon"  width="24" height="22" viewBox="0 0 24 22" fill="none" xmlns="http://www.w3.org/2000/svg">
            <path fill-rule="evenodd" clip-rule="evenodd" d="M7.50386 0.131757C7.79416 -0.0341284 8.14816 -0.0439541 8.44721 0.105573L15.9685 3.86623L22.5039 0.131757C22.8134 -0.0451016 23.1936 -0.0438317 23.5019 0.13509C23.8102 0.314012 24 0.64353 24 1V17C24 17.3589 23.8077 17.6902 23.4961 17.8682L16.4961 21.8682C16.2058 22.0341 15.8518 22.044 15.5528 21.8944L8.03147 18.1338L1.49614 21.8682C1.18664 22.0451 0.806388 22.0438 0.498073 21.8649C0.189758 21.686 0 21.3565 0 21V5C0 4.64114 0.192286 4.3098 0.503861 4.13176L7.50386 0.131757ZM8.03147 2.13377L2 5.58032V19.2768L7.50386 16.1318C7.79416 15.9659 8.14816 15.956 8.44721 16.1056L15.9685 19.8662L22 16.4197V2.72318L16.4961 5.86824C16.2058 6.03413 15.8518 6.04395 15.5528 5.89443L8.03147 2.13377Z" fill="currentColor"/>
            <path fill-rule="evenodd" clip-rule="evenodd" d="M8 0C8.55228 0 9 0.447715 9 1V17C9 17.5523 8.55228 18 8 18C7.44772 18 7 17.5523 7 17V1C7 0.447715 7.44772 0 8 0Z" fill="currentColor"/>
            <path fill-rule="evenodd" clip-rule="evenodd" d="M16 4C16.5523 4 17 4.44772 17 5V21C17 21.5523 16.5523 22 16 22C15.4477 22 15 21.5523 15 21V5C15 4.44772 15.4477 4 16 4Z" fill="currentColor"/>
        </symbol>
 
        <symbol id="zap-icon" width="20" height="22" viewBox="0 0 20 22" fill="none" xmlns="http://www.w3.org/2000/svg">
            <path fill-rule="evenodd" clip-rule="evenodd" d="M11.3982 0.0826934C11.8054 0.259462 12.0474 0.683531 11.9923 1.12403L11.1328 8H19C19.388 8 19.741 8.22445 19.9056 8.57584C20.0702 8.92723 20.0166 9.3421 19.7682 9.64018L9.76823 21.6402C9.48404 21.9812 9.00903 22.0941 8.60182 21.9173C8.1946 21.7405 7.95267 21.3165 8.00773 20.876L8.86723 14H1.00001C0.611995 14 0.259003 13.7755 0.0944228 13.4242C-0.070157 13.0728 -0.0166119 12.6579 0.231791 12.3598L10.2318 0.35981C10.516 0.0187764 10.991 -0.0940753 11.3982 0.0826934ZM3.13505 12H10C10.2868 12 10.5599 12.1232 10.7497 12.3382C10.9395 12.5532 11.0279 12.8394 10.9923 13.124L10.4154 17.7395L16.865 10H10C9.71318 10 9.44016 9.87683 9.25033 9.6618C9.06051 9.44677 8.97216 9.16058 9.00773 8.87596L9.58467 4.26045L3.13505 12Z" fill="currentColor"/>
        </symbol>

        <symbol id="share-icon" width="20" height="22" viewBox="0 0 20 22" fill="none" xmlns="http://www.w3.org/2000/svg">
            <path fill-rule="evenodd" clip-rule="evenodd" d="M16 2C14.8954 2 14 2.89543 14 4C14 5.10457 14.8954 6 16 6C17.1046 6 18 5.10457 18 4C18 2.89543 17.1046 2 16 2ZM12 4C12 1.79086 13.7909 0 16 0C18.2091 0 20 1.79086 20 4C20 6.20914 18.2091 8 16 8C13.7909 8 12 6.20914 12 4Z" fill="currentColor"/>
            <path fill-rule="evenodd" clip-rule="evenodd" d="M4 9C2.89543 9 2 9.89543 2 11C2 12.1046 2.89543 13 4 13C5.10457 13 6 12.1046 6 11C6 9.89543 5.10457 9 4 9ZM0 11C0 8.79086 1.79086 7 4 7C6.20914 7 8 8.79086 8 11C8 13.2091 6.20914 15 4 15C1.79086 15 0 13.2091 0 11Z" fill="currentColor"/>
            <path fill-rule="evenodd" clip-rule="evenodd" d="M16 16C14.8954 16 14 16.8954 14 18C14 19.1046 14.8954 20 16 20C17.1046 20 18 19.1046 18 18C18 16.8954 17.1046 16 16 16ZM12 18C12 15.7909 13.7909 14 16 14C18.2091 14 20 15.7909 20 18C20 20.2091 18.2091 22 16 22C13.7909 22 12 20.2091 12 18Z" fill="currentColor"/>
            <path fill-rule="evenodd" clip-rule="evenodd" d="M5.726 12.0065C6.00406 11.5293 6.61631 11.3679 7.09348 11.646L13.9235 15.626C14.4007 15.904 14.5621 16.5163 14.284 16.9935C14.006 17.4706 13.3937 17.6321 12.9165 17.354L6.08653 13.374C5.60935 13.0959 5.44794 12.4837 5.726 12.0065Z" fill="currentColor"/>
            <path fill-rule="evenodd" clip-rule="evenodd" d="M14.2737 5.00596C14.5521 5.48296 14.391 6.09531 13.914 6.37368L7.09403 10.3537C6.61703 10.632 6.00469 10.471 5.72632 9.99402C5.44795 9.51702 5.60898 8.90467 6.08598 8.6263L12.906 4.6463C13.383 4.36793 13.9953 4.52896 14.2737 5.00596Z" fill="currentColor"/>
        </symbol>

        <symbol id="talk-icon" width="20" height="20" viewBox="0 0 20 20" fill="none" xmlns="http://www.w3.org/2000/svg">
            <path d="M19 9.50003C19.0034 10.8199 18.6951 12.1219 18.1 13.3C17.3944 14.7118 16.3098 15.8992 14.9674 16.7293C13.6251 17.5594 12.0782 17.9994 10.5 18C9.18013 18.0035 7.87812 17.6951 6.7 17.1L1 19L2.9 13.3C2.30493 12.1219 1.99656 10.8199 2 9.50003C2.00061 7.92179 2.44061 6.37488 3.27072 5.03258C4.10083 3.69028 5.28825 2.6056 6.7 1.90003C7.87812 1.30496 9.18013 0.996587 10.5 1.00003H11C13.0843 1.11502 15.053 1.99479 16.5291 3.47089C18.0052 4.94699 18.885 6.91568 19 9.00003V9.50003Z" stroke="currentColor" stroke-width="2" stroke-linecap="round" stroke-linejoin="round"/>
        </symbol>

        <symbol id="card-icon" width="24" height="18" viewBox="0 0 24 18" fill="none" xmlns="http://www.w3.org/2000/svg">
            <path fill-rule="evenodd" clip-rule="evenodd" d="M3 2C2.44772 2 2 2.44772 2 3V15C2 15.5523 2.44772 16 3 16H21C21.5523 16 22 15.5523 22 15V3C22 2.44772 21.5523 2 21 2H3ZM0 3C0 1.34315 1.34315 0 3 0H21C22.6569 0 24 1.34315 24 3V15C24 16.6569 22.6569 18 21 18H3C1.34315 18 0 16.6569 0 15V3Z" fill="currentColor"/>
            <path fill-rule="evenodd" clip-rule="evenodd" d="M0 7C0 6.44772 0.447715 6 1 6H23C23.5523 6 24 6.44772 24 7C24 7.55228 23.5523 8 23 8H1C0.447715 8 0 7.55228 0 7Z" fill="#currentColor"/>
        </symbol>

        <symbol id="search-icon" width="20" height="20" viewBox="0 0 20 20" fill="none" xmlns="http://www.w3.org/2000/svg">
            <path fill-rule="evenodd" clip-rule="evenodd" d="M9 2C5.13401 2 2 5.13401 2 9C2 12.866 5.13401 16 9 16C12.866 16 16 12.866 16 9C16 5.13401 12.866 2 9 2ZM0 9C0 4.02944 4.02944 0 9 0C13.9706 0 18 4.02944 18 9C18 13.9706 13.9706 18 9 18C4.02944 18 0 13.9706 0 9Z" fill="currentColor9"/>
            <path fill-rule="evenodd" clip-rule="evenodd" d="M13.9428 13.9429C14.3333 13.5524 14.9665 13.5524 15.357 13.9429L19.707 18.2929C20.0975 18.6834 20.0975 19.3166 19.707 19.7071C19.3165 20.0977 18.6833 20.0977 18.2928 19.7071L13.9428 15.3571C13.5523 14.9666 13.5523 14.3334 13.9428 13.9429Z" fill="currentColor"/>
        </symbol>

        <symbol id="user-icon" width="18" height="20" viewBox="0 0 18 20" fill="none" xmlns="http://www.w3.org/2000/svg">
            <path fill-rule="evenodd" clip-rule="evenodd" d="M1.46447 13.4645C2.40215 12.5268 3.67392 12 5 12H13C14.3261 12 15.5979 12.5268 16.5355 13.4645C17.4732 14.4021 18 15.6739 18 17V19C18 19.5523 17.5523 20 17 20C16.4477 20 16 19.5523 16 19V17C16 16.2044 15.6839 15.4413 15.1213 14.8787C14.5587 14.3161 13.7956 14 13 14H5C4.20435 14 3.44129 14.3161 2.87868 14.8787C2.31607 15.4413 2 16.2044 2 17V19C2 19.5523 1.55228 20 1 20C0.447715 20 0 19.5523 0 19V17C0 15.6739 0.526784 14.4021 1.46447 13.4645Z" fill="#currentColor"/>
            <path fill-rule="evenodd" clip-rule="evenodd" d="M9 2C7.34315 2 6 3.34315 6 5C6 6.65685 7.34315 8 9 8C10.6569 8 12 6.65685 12 5C12 3.34315 10.6569 2 9 2ZM4 5C4 2.23858 6.23858 0 9 0C11.7614 0 14 2.23858 14 5C14 7.76142 11.7614 10 9 10C6.23858 10 4 7.76142 4 5Z" fill="currentColor"/>
        </symbol>
 
        <symbol id="users-icon" width="24" height="20" viewBox="0 0 24 20" fill="none" xmlns="http://www.w3.org/2000/svg">
            <path fill-rule="evenodd" clip-rule="evenodd" d="M1.46447 13.4645C2.40215 12.5268 3.67392 12 5 12H13C14.3261 12 15.5979 12.5268 16.5355 13.4645C17.4732 14.4021 18 15.6739 18 17V19C18 19.5523 17.5523 20 17 20C16.4477 20 16 19.5523 16 19V17C16 16.2044 15.6839 15.4413 15.1213 14.8787C14.5587 14.3161 13.7956 14 13 14H5C4.20435 14 3.44129 14.3161 2.87868 14.8787C2.31607 15.4413 2 16.2044 2 17V19C2 19.5523 1.55228 20 1 20C0.447715 20 0 19.5523 0 19V17C0 15.6739 0.526784 14.4021 1.46447 13.4645Z" fill="currentColor"/>
            <path fill-rule="evenodd" clip-rule="evenodd" d="M9 2C7.34315 2 6 3.34315 6 5C6 6.65685 7.34315 8 9 8C10.6569 8 12 6.65685 12 5C12 3.34315 10.6569 2 9 2ZM4 5C4 2.23858 6.23858 0 9 0C11.7614 0 14 2.23858 14 5C14 7.76142 11.7614 10 9 10C6.23858 10 4 7.76142 4 5Z" fill="currentColor"/>
            <path fill-rule="evenodd" clip-rule="evenodd" d="M19.0318 12.88C19.1698 12.3453 19.7153 12.0237 20.25 12.1618C21.3227 12.4387 22.273 13.0641 22.9517 13.9397C23.6304 14.8152 23.9992 15.8914 24 16.9993L24 19C24 19.5523 23.5523 20 23 20C22.4477 20 22 19.5523 22 19L22 17.0007C22 17.0006 22 17.0008 22 17.0007C21.9994 16.3361 21.7782 15.6902 21.371 15.165C20.9638 14.6396 20.3936 14.2644 19.75 14.0982C19.2153 13.9602 18.8937 13.4148 19.0318 12.88Z" fill="currentColor"/>
            <path fill-rule="evenodd" clip-rule="evenodd" d="M15.0312 0.881962C15.1682 0.346936 15.713 0.0242632 16.248 0.161251C17.3236 0.436628 18.2768 1.06213 18.9576 1.93914C19.6383 2.81615 20.0078 3.89479 20.0078 5.005C20.0078 6.11521 19.6383 7.19385 18.9576 8.07086C18.2768 8.94787 17.3236 9.57337 16.248 9.84875C15.713 9.98574 15.1682 9.66307 15.0312 9.12804C14.8943 8.59301 15.2169 8.04824 15.752 7.91125C16.3973 7.74603 16.9692 7.37073 17.3777 6.84452C17.7861 6.31831 18.0078 5.67113 18.0078 5.005C18.0078 4.33887 17.7861 3.69169 17.3777 3.16548C16.9692 2.63928 16.3973 2.26398 15.752 2.09875C15.2169 1.96176 14.8943 1.41699 15.0312 0.881962Z" fill="currentColor"/>
        </symbol>







        <symbol id="sun-icon" width="24" height="24" viewBox="0 0 24 24" fill="none" xmlns="http://www.w3.org/2000/svg">
            <path fill-rule="evenodd" clip-rule="evenodd" d="M12 8C9.79086 8 8 9.79086 8 12C8 14.2091 9.79086 16 12 16C14.2091 16 16 14.2091 16 12C16 9.79086 14.2091 8 12 8ZM6 12C6 8.68629 8.68629 6 12 6C15.3137 6 18 8.68629 18 12C18 15.3137 15.3137 18 12 18C8.68629 18 6 15.3137 6 12Z" fill="currentColor"/>
            <path fill-rule="evenodd" clip-rule="evenodd" d="M12 0C12.5523 0 13 0.447715 13 1V3C13 3.55228 12.5523 4 12 4C11.4477 4 11 3.55228 11 3V1C11 0.447715 11.4477 0 12 0Z" fill="currentColor"/>
            <path fill-rule="evenodd" clip-rule="evenodd" d="M12 20C12.5523 20 13 20.4477 13 21V23C13 23.5523 12.5523 24 12 24C11.4477 24 11 23.5523 11 23V21C11 20.4477 11.4477 20 12 20Z" fill="currentColor"/>
            <path fill-rule="evenodd" clip-rule="evenodd" d="M3.51286 3.51286C3.90339 3.12234 4.53655 3.12234 4.92708 3.51286L6.34708 4.93286C6.7376 5.32339 6.7376 5.95655 6.34708 6.34708C5.95655 6.7376 5.32339 6.7376 4.93286 6.34708L3.51286 4.92708C3.12234 4.53655 3.12234 3.90339 3.51286 3.51286Z" fill="currentColor"/>
            <path fill-rule="evenodd" clip-rule="evenodd" d="M17.653 17.6529C18.0435 17.2624 18.6767 17.2624 19.0672 17.6529L20.4872 19.0729C20.8777 19.4634 20.8777 20.0966 20.4872 20.4871C20.0967 20.8776 19.4635 20.8776 19.073 20.4871L17.653 19.0671C17.2625 18.6766 17.2625 18.0434 17.653 17.6529Z" fill="currentColor"/>
            <path fill-rule="evenodd" clip-rule="evenodd" d="M0 12C0 11.4477 0.447715 11 1 11H3C3.55228 11 4 11.4477 4 12C4 12.5523 3.55228 13 3 13H1C0.447715 13 0 12.5523 0 12Z" fill="currentColor"/>
            <path fill-rule="evenodd" clip-rule="evenodd" d="M20 12C20 11.4477 20.4477 11 21 11H23C23.5523 11 24 11.4477 24 12C24 12.5523 23.5523 13 23 13H21C20.4477 13 20 12.5523 20 12Z" fill="currentColor"/>
            <path fill-rule="evenodd" clip-rule="evenodd" d="M6.34708 17.6529C6.7376 18.0434 6.7376 18.6766 6.34708 19.0671L4.92708 20.4871C4.53655 20.8776 3.90339 20.8776 3.51286 20.4871C3.12234 20.0966 3.12234 19.4634 3.51286 19.0729L4.93286 17.6529C5.32339 17.2624 5.95655 17.2624 6.34708 17.6529Z" fill="currentColor"/>
            <path fill-rule="evenodd" clip-rule="evenodd" d="M20.4872 3.51286C20.8777 3.90339 20.8777 4.53655 20.4872 4.92708L19.0672 6.34708C18.6767 6.7376 18.0435 6.7376 17.653 6.34708C17.2625 5.95655 17.2625 5.32339 17.653 4.93286L19.073 3.51286C19.4635 3.12234 20.0967 3.12234 20.4872 3.51286Z" fill="currentColor"/>
        </symbol>
 
        <symbol id="moon-icon" width="20" height="20" viewBox="0 0 20 20" fill="none" xmlns="http://www.w3.org/2000/svg">
            <path fill-rule="evenodd" clip-rule="evenodd" d="M10.0811 0.509041C10.2746 0.852424 10.2484 1.27745 10.0141 1.59442C9.15985 2.75008 8.74879 4.17395 8.85566 5.60706C8.96254 7.04018 9.58023 8.38733 10.5964 9.40351C11.6126 10.4197 12.9597 11.0374 14.3929 11.1443C15.826 11.2511 17.2498 10.8401 18.4055 9.98585L18.9999 10.79L19.9957 10.882C19.8209 12.7734 19.1111 14.5758 17.9493 16.0785C16.7875 17.5811 15.2218 18.7218 13.4353 19.3671C11.6489 20.0124 9.71564 20.1355 7.86177 19.7221C6.0079 19.3088 4.3101 18.376 2.96702 17.0329C1.62394 15.6898 0.691147 13.992 0.277778 12.1381C-0.135591 10.2843 -0.0124347 8.35102 0.632836 6.56459C1.27811 4.77816 2.4188 3.21244 3.92145 2.05065C5.4241 0.88886 7.22654 0.179044 9.11788 0.00425972C9.51037 -0.0320113 9.88755 0.165658 10.0811 0.509041ZM17.5608 12.6836C16.5077 13.0646 15.3781 13.2233 14.2441 13.1387C12.3333 12.9962 10.5371 12.1726 9.1822 10.8177C7.82729 9.46282 7.0037 7.66661 6.8612 5.7558C6.77664 4.62183 6.93528 3.4922 7.31629 2.43908C6.53868 2.72043 5.8055 3.12204 5.14478 3.63289C3.94266 4.56232 3.0301 5.81489 2.51389 7.24404C1.99767 8.67318 1.89914 10.2198 2.22984 11.7029C2.56054 13.186 3.30677 14.5442 4.38123 15.6187C5.45569 16.6931 6.81394 17.4394 8.29703 17.7701C9.78013 18.1008 11.3267 18.0022 12.7559 17.486C14.185 16.9698 15.4376 16.0573 16.367 14.8551C16.8779 14.1944 17.2795 13.4612 17.5608 12.6836Z" fill="currentColor"/>
        </symbol>

        <symbol id="modal-icon" width="14" height="14" viewBox="0 0 14 14" fill="none" xmlns="http://www.w3.org/2000/svg">
            <path fill-rule="evenodd" clip-rule="evenodd" d="M13.7071 0.292893C14.0976 0.683417 14.0976 1.31658 13.7071 1.70711L1.70711 13.7071C1.31658 14.0976 0.683417 14.0976 0.292893 13.7071C-0.0976311 13.3166 -0.0976311 12.6834 0.292893 12.2929L12.2929 0.292893C12.6834 -0.0976311 13.3166 -0.0976311 13.7071 0.292893Z" fill="currentColor"/>
            <path fill-rule="evenodd" clip-rule="evenodd" d="M0.292893 0.292893C0.683417 -0.0976311 1.31658 -0.0976311 1.70711 0.292893L13.7071 12.2929C14.0976 12.6834 14.0976 13.3166 13.7071 13.7071C13.3166 14.0976 12.6834 14.0976 12.2929 13.7071L0.292893 1.70711C-0.0976311 1.31658 -0.0976311 0.683417 0.292893 0.292893Z" fill="currentColor"/>
        </symbol>

        <symbol id="accordion-icon" width="18" height="10" viewBox="0 0 18 10" fill="none" xmlns="http://www.w3.org/2000/svg">
            <path fill-rule="evenodd" clip-rule="evenodd" d="M0.292893 0.292893C0.683417 -0.0976311 1.31658 -0.0976311 1.70711 0.292893L9 7.58579L16.2929 0.292893C16.6834 -0.0976311 17.3166 -0.0976311 17.7071 0.292893C18.0976 0.683417 18.0976 1.31658 17.7071 1.70711L9.70711 9.70711C9.31658 10.0976 8.68342 10.0976 8.29289 9.70711L0.292893 1.70711C-0.0976311 1.31658 -0.0976311 0.683417 0.292893 0.292893Z" fill="currentColor"/>
        </symbol>

        <symbol id="menu-icon" width="20" height="14" viewBox="0 0 20 14" fill="none" xmlns="http://www.w3.org/2000/svg">
            <path fill-rule="evenodd" clip-rule="evenodd" d="M0 7C0 6.44772 0.447715 6 1 6H19C19.5523 6 20 6.44772 20 7C20 7.55228 19.5523 8 19 8H1C0.447715 8 0 7.55228 0 7Z" fill="currentColor"/>
            <path fill-rule="evenodd" clip-rule="evenodd" d="M0 1C0 0.447715 0.447715 0 1 0H19C19.5523 0 20 0.447715 20 1C20 1.55228 19.5523 2 19 2H1C0.447715 2 0 1.55228 0 1Z" fill="currentColor"/>
            <path fill-rule="evenodd" clip-rule="evenodd" d="M0 13C0 12.4477 0.447715 12 1 12H19C19.5523 12 20 12.4477 20 13C20 13.5523 19.5523 14 19 14H1C0.447715 14 0 13.5523 0 13Z" fill="currentColor"/>
        </symbol>

        <symbol id="check-icon" width="18" height="13" viewBox="0 0 18 13" fill="none" xmlns="http://www.w3.org/2000/svg">
            <path fill-rule="evenodd" clip-rule="evenodd" d="M17.7071 0.292893C18.0976 0.683417 18.0976 1.31658 17.7071 1.70711L6.70711 12.7071C6.31658 13.0976 5.68342 13.0976 5.29289 12.7071L0.292893 7.70711C-0.0976311 7.31658 -0.0976311 6.68342 0.292893 6.29289C0.683417 5.90237 1.31658 5.90237 1.70711 6.29289L6 10.5858L16.2929 0.292893C16.6834 -0.0976311 17.3166 -0.0976311 17.7071 0.292893Z" fill="currentColor"/>
        </symbol>
    </defs>
</svg>


















